<svg height="100" viewBox="0 0 100 100" width="100" xmlns="http://www.w3.org/2000/svg" xmlns:xlink="http://www.w3.org/1999/xlink"><clipPath id="a"><path d="m0 0h100v100h-100z"/></clipPath><linearGradient id="b"><stop offset="0" stop-color="#1a6dff"/><stop offset="1" stop-color="#c822ff"/></linearGradient><linearGradient id="c" x1="50%" x2="50%" xlink:href="#b" y1="-1.442308%" y2="101.925%"/><linearGradient id="d" x1="50%" x2="50%" xlink:href="#b" y1="-67.1875%" y2="268.75625%"/><linearGradient id="e" x1="50%" x2="50%" xlink:href="#b" y1="-56.25%" y2="391.675%"/><g clip-path="url(#a)"><path d="m52.239 84.057c2.46-6.749 7.953-12.412 13.689-18.315 8.393-8.634 17.072-17.563 17.072-30.853 0-18.747-15.253-34-34-34s-34 15.253-34 34c0 13.29 8.679 22.219 17.072 30.853 5.736 5.903 11.231 11.566 13.689 18.315-11.63.383-17.539 2.895-17.539 7.499 0 5.013 6.991 7.555 20.778 7.555s20.778-2.542 20.778-7.555c0-4.604-5.909-7.116-17.539-7.499zm-33.461-49.168c0-16.664 13.558-30.222 30.222-30.222s30.222 13.558 30.222 30.222c0 11.758-7.773 19.754-16.002 28.22-5.605 5.765-11.343 11.669-14.22 18.836-2.877-7.167-8.617-13.071-14.22-18.836-8.229-8.466-16.002-16.462-16.002-28.22zm30.222 60.444c-12.474 0-17-2.259-17-3.777 0-1.425 3.986-3.502 14.782-3.752.112.627.193 1.264.248 1.912-3.682.168-8.103.78-8.103 1.84 0 1.259 6.248 1.888 10.073 1.888s10.073-.629 10.073-1.888c0-1.06-4.421-1.672-8.103-1.84.055-.648.136-1.287.248-1.912 10.796.25 14.782 2.327 14.782 3.752 0 1.518-4.526 3.777-17 3.777z" fill="url(#c)"/><path d="m64.111 34.889c0-8.332-6.779-15.111-15.111-15.111s-15.111 6.779-15.111 15.111 6.779 15.111 15.111 15.111 15.111-6.779 15.111-15.111zm-26.444 0c0-6.25 5.083-11.333 11.333-11.333s11.333 5.083 11.333 11.333-5.083 11.333-11.333 11.333-11.333-5.083-11.333-11.333z" fill="url(#d)"/><path d="m67.889 34.889h3.778c0-12.499-10.168-22.667-22.667-22.667v3.778c10.415 0 18.889 8.474 18.889 18.889z" fill="url(#e)"/></g></svg>